<svg xmlns="http://www.w3.org/2000/svg" width="14.996" height="14.018" viewBox="0 0 14.996 14.018">
  <g id="Group_17" data-name="Group 17" transform="translate(710.059 -2430.102)">
    <path id="Path_12" data-name="Path 12" d="M-708.372,2431.947a.978.978,0,0,0,.531-.869.977.977,0,0,0-.977-.976.977.977,0,0,0-.976.976.979.979,0,0,0,.531.869.9.9,0,0,0-.8.888V2434h2.483v-1.166A.9.9,0,0,0-708.372,2431.947Z" transform="translate(0)" fill="#08b0b9"/>
    <rect id="Rectangle_18" data-name="Rectangle 18" width="8.511" height="2.108" transform="translate(-705.974 2431.893)" fill="#08b0b9"/>
    <path id="Path_13" data-name="Path 13" d="M-708.372,2452.876a.978.978,0,0,0,.531-.869.978.978,0,0,0-.977-.977.978.978,0,0,0-.976.977.979.979,0,0,0,.531.869.894.894,0,0,0-.8.888v1.165h2.483v-1.165A.894.894,0,0,0-708.372,2452.876Z" transform="translate(0 -15.869)" fill="#08b0b9"/>
    <rect id="Rectangle_19" data-name="Rectangle 19" width="6.168" height="2.108" transform="translate(-705.974 2436.952)" fill="#08b0b9"/>
    <path id="Path_14" data-name="Path 14" d="M-708.372,2473.805a.978.978,0,0,0,.531-.869.978.978,0,0,0-.977-.976.978.978,0,0,0-.976.976.979.979,0,0,0,.531.869.894.894,0,0,0-.8.888v1.166h2.483v-1.166A.894.894,0,0,0-708.372,2473.805Z" transform="translate(0 -31.74)" fill="#08b0b9"/>
    <rect id="Rectangle_20" data-name="Rectangle 20" width="10.911" height="2.108" transform="translate(-705.974 2442.011)" fill="#08b0b9"/>
  </g>
</svg>
