<svg xmlns="http://www.w3.org/2000/svg" width="18.244" height="17.809" viewBox="0 0 18.244 17.809">
  <g id="Group_152" data-name="Group 152" transform="translate(-2.044 -2.483)">
    <g id="Group_151" data-name="Group 151" transform="translate(2.044 2.483)">
      <path id="Path_168" data-name="Path 168" d="M53.037,11.317a.545.545,0,0,0,.405-.179L56.8,7.427l3.357,3.71a.546.546,0,0,0,.81-.733L57.2,6.245a.564.564,0,0,0-.81,0L52.632,10.4a.546.546,0,0,0,.405.913Z" transform="translate(-42.864 -6.073)" fill="#09b1ba"/>
      <path id="Path_169" data-name="Path 169" d="M57.2,24.667a.562.562,0,0,0-.81,0l-3.762,4.159a.546.546,0,1,0,.81.733L56.8,25.847l3.357,3.711a.546.546,0,0,0,.81-.733Z" transform="translate(-42.864 -20.76)" fill="#09b1ba"/>
      <path id="Path_170" data-name="Path 170" d="M13.429,15.7h-.045V8.6c0-1.222-1.841-2.179-4.192-2.179S5,7.379,5,8.6V20.428c0,1.222,1.841,2.179,4.191,2.179.073,0,.143-.005.214-.007.5.911,2.088,1.561,4.023,1.561,2.351,0,4.192-.957,4.192-2.179v-4.1C17.621,16.657,15.779,15.7,13.429,15.7Zm3.646,2.179c0,.789-1.465,1.633-3.645,1.633s-3.645-.844-3.645-1.633,1.465-1.632,3.645-1.632S17.074,17.091,17.074,17.879Zm0,1.092v1.1c0,.789-1.465,1.633-3.645,1.633s-3.645-.844-3.645-1.633v-1.1c.015.013.034.024.049.038a2.483,2.483,0,0,0,.2.16l.087.06c.087.058.179.115.277.167l.041.024c.114.059.234.115.361.166.035.015.071.028.106.042.1.038.2.073.3.107.04.013.081.026.123.038.132.038.267.075.407.106l.033.008c.152.033.309.06.47.084l.138.018c.123.015.247.029.374.039.049,0,.1.009.149.012.171.011.345.019.523.019s.352-.007.523-.019l.149-.011c.127-.01.251-.023.373-.039l.139-.018c.16-.025.318-.051.469-.084l.033-.008c.141-.031.276-.068.407-.106l.123-.038c.1-.033.206-.069.3-.107.036-.014.072-.027.106-.042.126-.051.248-.107.361-.166l.042-.024c.1-.054.19-.109.276-.167l.088-.06c.071-.051.138-.1.2-.159C17.04,19,17.06,18.985,17.074,18.971ZM12.8,15.726c.011-.01.025-.019.036-.029v.025ZM9.191,6.969c2.181,0,3.646.844,3.646,1.632s-1.465,1.632-3.646,1.632S5.546,9.39,5.546,8.6,7.011,6.969,9.191,6.969ZM5.546,9.693c.015.014.034.025.049.039.063.055.131.109.2.16l.087.061q.131.086.277.166c.014.007.027.016.042.024.113.059.234.115.361.166.034.015.07.027.106.042.1.038.2.074.3.107L7.1,10.5c.132.039.267.074.407.106l.033.008c.152.033.309.059.469.084l.139.018c.122.015.246.028.373.039l.149.011c.171.011.345.018.523.018s.352-.008.523-.018l.149-.011c.127-.01.251-.024.374-.039l.138-.018c.16-.024.318-.051.47-.084l.033-.008c.141-.032.276-.068.408-.106l.123-.039c.1-.034.206-.07.3-.107l.106-.041c.126-.053.247-.108.361-.167.015-.007.027-.016.042-.024.1-.053.19-.108.277-.166l.088-.061c.072-.052.138-.105.2-.159.016-.013.035-.026.05-.04V10.8c0,.789-1.465,1.632-3.646,1.632S5.547,11.586,5.547,10.8V9.693Zm0,2.193a5.581,5.581,0,0,0,3.645,1.091,5.584,5.584,0,0,0,3.646-1.091V12.7c0,.789-1.465,1.633-3.646,1.633S5.546,13.492,5.546,12.7Zm0,1.906a5.579,5.579,0,0,0,3.645,1.091,5.581,5.581,0,0,0,3.646-1.091v.818c0,.789-1.465,1.633-3.646,1.633S5.546,15.4,5.546,14.61Zm0,1.906a5.58,5.58,0,0,0,3.645,1.092c.213,0,.421-.01.624-.025a1.508,1.508,0,0,0-.578,1.115v.268H9.191c-2.18,0-3.645-.844-3.645-1.632Zm0,1.905a5.579,5.579,0,0,0,3.645,1.092l.047,0v1.359l-.047,0c-2.18,0-3.645-.844-3.645-1.633ZM9.191,22.06c-2.18,0-3.645-.844-3.645-1.632v-.919A5.579,5.579,0,0,0,9.191,20.6l.047,0v1.383c0,.027.005.052.007.078Zm4.238,1.554c-2.18,0-3.645-.844-3.645-1.632v-.817a5.581,5.581,0,0,0,3.645,1.091,5.581,5.581,0,0,0,3.645-1.091v.817C17.074,22.77,15.609,23.614,13.429,23.614Z" transform="translate(-5 -6.351)" fill="#09b1ba"/>
    </g>
  </g>
</svg>
